<?xml version="1.0" encoding="UTF-8"?>
<svg version="1.1" xmlns="http://www.w3.org/2000/svg" width="200" height="200">
<path d="M0 0 C1.69333143 1.29930144 3.36323359 2.63012728 5 4 C5.99 4.66 6.98 5.32 8 6 C9.41007228 7.19168633 10.80514214 8.40127337 12.1875 9.625 C12.90292969 10.25664063 13.61835938 10.88828125 14.35546875 11.5390625 C14.89816406 12.02117188 15.44085938 12.50328125 16 13 C10.909809 14.69673033 6.08272895 13.42746442 1 12 C-2.16097359 10.38174056 -5.11923641 8.56610506 -8.12890625 6.68359375 C-18.36538816 0.68097647 -31.50255661 -0.17653914 -43 2 C-46.45948284 3.09483633 -49.71292889 4.47031504 -53 6 C-53.99 6.4125 -54.98 6.825 -56 7.25 C-67.86336986 14.17029908 -76.29427098 24.07791871 -81 37 C-81.391875 38.051875 -81.78375 39.10375 -82.1875 40.1875 C-84.39997406 50.56910903 -84.41024607 60.64914873 -82 71 C-81.67 71.33 -81.34 71.66 -81 72 C-80.608125 71.21625 -80.21625 70.4325 -79.8125 69.625 C-77.72799504 66.60606178 -76.37338485 66.18151286 -73 65 C-73.05800781 63.69546875 -73.11601563 62.3909375 -73.17578125 61.046875 C-73.50092298 50.66421462 -73.41930834 42.19765562 -68 33 C-67.50371094 32.10925781 -67.00742188 31.21851563 -66.49609375 30.30078125 C-60.62173148 20.83102618 -50.66311589 14.89248745 -40 12 C-28.72037124 9.9808072 -20.68316169 11.98857103 -10.74609375 17.20703125 C-8.3500636 18.29516127 -6.58580184 18.43096697 -4 18 C-3.41089844 17.67257813 -2.82179688 17.34515625 -2.21484375 17.0078125 C2.29130969 14.95739347 7.18462336 15.31036063 12 16 C18.97063033 19.02617185 24.36949596 24.22019519 27.375 31.1875 C28.43481783 37.65238878 28.2505154 43.54363046 25.25 49.4375 C23 52 23 52 20.1875 53.875 C17.78137022 55.7274941 17.78137022 55.7274941 17.90625 58.0234375 C18.16005718 60.03274434 18.57114159 62.02065351 19 64 C20.98 64.495 20.98 64.495 23 65 C23 61.7 23 58.4 23 55 C23.66 55 24.32 55 25 55 C25.28875 54.236875 25.5775 53.47375 25.875 52.6875 C27 50 27 50 29 47 C29.38499891 45.34450469 29.72793135 43.6777567 30 42 C30.66 42.33 31.32 42.66 32 43 C33.9682395 51.06978193 32.93799467 58.40993391 31 66.3125 C30.62221968 67.89126437 30.24710374 69.47066932 29.875 71.05078125 C29.70742187 71.73825439 29.53984375 72.42572754 29.3671875 73.1340332 C28.62931237 76.88375367 29.37617773 79.381596 30.6875 82.875 C31.04585938 83.84824219 31.40421875 84.82148438 31.7734375 85.82421875 C32.61688367 88.00804594 33.4995073 90.17701583 34.4140625 92.33203125 C39.1439258 103.68106079 39.1439258 103.68106079 37 110 C33.83041368 113.62238437 32.12514994 114.88557797 27.3125 115.375 C24 115 24 115 21 114 C21 113.34 21 112.68 21 112 C19.515 111.505 19.515 111.505 18 111 C16.61328125 108.49609375 16.61328125 108.49609375 15.3125 105.4375 C14.87550781 104.42558594 14.43851562 103.41367188 13.98828125 102.37109375 C13.66214844 101.58863281 13.33601563 100.80617188 13 100 C11.8553125 100.99 11.8553125 100.99 10.6875 102 C8 104 8 104 5 104 C5 104.66 5 105.32 5 106 C4.071875 106.309375 3.14375 106.61875 2.1875 106.9375 C-1.33768584 109.21850261 -1.46823157 109.63558965 -2.5 113.4375 C-3.44445747 116.6824237 -3.94794484 117.94372415 -6.3125 120.5 C-17.49424645 125.04850703 -32.45518644 123.18624465 -44.37988281 123.18530273 C-47.52161714 123.18751522 -50.66301377 123.20581012 -53.8046875 123.22460938 C-55.81770715 123.22753958 -57.83072844 123.22952687 -59.84375 123.23046875 C-60.77505737 123.23765427 -61.70636475 123.24483978 -62.66589355 123.25224304 C-69.92967667 123.22671166 -75.64823455 122.35176545 -81 117 C-81.98208676 113.90931519 -82.00893542 111.1486709 -81.81640625 107.953125 C-81.2212336 97.9188359 -82.23362362 90.98665891 -86.92602539 82.07202148 C-94.76854567 67.15564947 -94.92809872 49.93846056 -90 34 C-84.72891297 21.39073299 -77.42893653 10.61929102 -66 3 C-65.34 2.34 -64.68 1.68 -64 1 C-43.71515856 -10.48198572 -20.68270295 -10.88076623 0 0 Z M-34 20 C-35.38137335 21.67465856 -36.68146716 23.41689132 -37.9375 25.1875 C-38.62714844 26.15042969 -39.31679687 27.11335938 -40.02734375 28.10546875 C-43.5511244 32.67770803 -43.5511244 32.67770803 -45 38 C-37.08 38 -29.16 38 -21 38 C-22.75247986 32.3813201 -22.75247986 32.3813201 -26 28 C-26.66 28 -27.32 28 -28 28 C-28.433125 26.8553125 -28.433125 26.8553125 -28.875 25.6875 C-29.96269013 22.84970692 -29.96269013 22.84970692 -32 20 C-32.66 20 -33.32 20 -34 20 Z M-7.375 28.75 C-10.06754371 34.13508742 -10.64225256 37.97183403 -8.8125 43.75 C-6.60944745 47.70030113 -4.70556443 50.05246421 -0.75 52.25 C4.59763605 53.7084462 8.95690197 53.86680462 13.8125 51.1875 C18.96931048 47.64851241 20.59781792 45.44953078 21.77734375 39.34375 C22.23009604 34.57793646 20.76615047 31.16243519 18.1875 27.25 C14.569073 23.52818937 11.8334187 21.82778448 6.625 21.5625 C0.45028013 21.79880376 -3.29815492 24.02944254 -7.375 28.75 Z M-49 41 C-51.25885324 44.25397508 -51.25885324 44.25397508 -52 48 C-52.99 48.33 -53.98 48.66 -55 49 C-54.67 49.66 -54.34 50.32 -54 51 C-49.38 51 -44.76 51 -40 51 C-40 48.03 -40 45.06 -40 42 C-42.97 41.67 -45.94 41.34 -49 41 Z M-35 41 C-36.59628479 43.81989159 -36.59628479 43.81989159 -36 51 C-28.41 51 -20.82 51 -13 51 C-13 46.75418752 -14.17281949 45.14416742 -17 42 C-20.07883025 41.11926976 -23.06270678 41.11503971 -26.25 41.125 C-27.09046875 41.104375 -27.9309375 41.08375 -28.796875 41.0625 C-30.86415445 41.01551638 -32.93219109 41.00425475 -35 41 Z M-58 54 C-60.475 58.455 -60.475 58.455 -63 63 C-57.94990405 63.93786082 -57.94990405 63.93786082 -53 63 C-51.22686149 62.91790208 -49.45079225 62.89253706 -47.67578125 62.90234375 C-46.64775391 62.90556641 -45.61972656 62.90878906 -44.56054688 62.91210938 C-42.95276367 62.92467773 -42.95276367 62.92467773 -41.3125 62.9375 C-40.22904297 62.94201172 -39.14558594 62.94652344 -38.02929688 62.95117188 C-35.35280915 62.96296257 -32.67643223 62.97941937 -30 63 C-29.67 60.03 -29.34 57.06 -29 54 C-38.57 54 -48.14 54 -58 54 Z M-26 54 C-25.67 56.97 -25.34 59.94 -25 63 C-17.66236293 64.17402193 -10.41834582 64.09377123 -3 64 C-4.3789228 59.97814184 -5.83206525 56.88690828 -9 54 C-11.94190645 53.39647434 -14.76297115 53.52650757 -17.75 53.6875 C-18.93916016 53.72133789 -18.93916016 53.72133789 -20.15234375 53.75585938 C-22.1023762 53.81459529 -24.05143312 53.90427346 -26 54 Z M8 58 C6.76406109 61.70781672 7.4321868 62.67510253 8.9375 66.1875 C9.31777344 67.08855469 9.69804687 67.98960938 10.08984375 68.91796875 C10.39019531 69.60503906 10.69054687 70.29210937 11 71 C10.34 71 9.68 71 9 71 C9.33 72.32 9.66 73.64 10 75 C12.97 74.01 15.94 73.02 19 72 C18.67 70.68 18.34 69.36 18 68 C17.01 67.67 16.02 67.34 15 67 C13.83203125 64.93359375 13.83203125 64.93359375 12.8125 62.4375 C12.29623047 61.19806641 12.29623047 61.19806641 11.76953125 59.93359375 C11.51558594 59.29550781 11.26164062 58.65742187 11 58 C10.01 58 9.02 58 8 58 Z M-51.9375 66.390625 C-53.18365169 67.95676674 -53.18365169 67.95676674 -53 70 C-52.34 70 -51.68 70 -51 70 C-51 69.34 -51 68.68 -51 68 C-46.05 68 -41.1 68 -36 68 C-36 68.66 -36 69.32 -36 70 C-35.01 69.67 -34.02 69.34 -33 69 C-33 68.01 -33 67.02 -33 66 C-36.48027742 64.83990753 -39.33321643 64.79583479 -43 64.75 C-44.2375 64.72421875 -45.475 64.6984375 -46.75 64.671875 C-49.95318385 64.72247826 -49.95318385 64.72247826 -51.9375 66.390625 Z M-6 67 C-4.68 69.97 -3.36 72.94 -2 76 C0.31 76 2.62 76 5 76 C4.35330586 74.65686601 3.68096422 73.32608822 3 72 C2.5875 71.0925 2.175 70.185 1.75 69.25 C0.88375 68.13625 0.88375 68.13625 0 67 C-3.12635209 66.58253392 -3.12635209 66.58253392 -6 67 Z M-74 71 C-75.12516085 72.83284443 -75.12516085 72.83284443 -76 75 C-75.67 75.99 -75.34 76.98 -75 78 C-72.36 78 -69.72 78 -67 78 C-67 75.69 -67 73.38 -67 71 C-69.31 71 -71.62 71 -74 71 Z M-65 71 C-65 74.63 -65 78.26 -65 82 C-63.68 82 -62.36 82 -61 82 C-60.67 78.7 -60.34 75.4 -60 72 C-61.65 71.67 -63.3 71.34 -65 71 Z M-59 71 C-59.19814261 77.08408472 -59.19814261 77.08408472 -58 83 C-56.35 83 -54.7 83 -53 83 C-53 82.34 -53 81.68 -53 81 C-51.68 81.66 -50.36 82.32 -49 83 C-49.6013986 88.41258741 -49.6013986 88.41258741 -51.1875 90.75 C-53.61893774 92.42685361 -56.19964298 93.10570466 -59 94 C-59.02895225 97.29164829 -59.0467823 100.58326399 -59.0625 103.875 C-59.07087891 104.81214844 -59.07925781 105.74929687 -59.08789062 106.71484375 C-59.09111328 107.61074219 -59.09433594 108.50664062 -59.09765625 109.4296875 C-59.10289307 110.25710449 -59.10812988 111.08452148 -59.11352539 111.93701172 C-59.13352138 114.06411757 -59.13352138 114.06411757 -58 116 C-54.20761718 116.92702691 -51.70933312 116.94132416 -48 116 C-46.55901569 115.92233916 -45.11491371 115.89203633 -43.671875 115.90234375 C-42.5905127 115.90609009 -42.5905127 115.90609009 -41.48730469 115.90991211 C-40.58399414 115.91901611 -39.68068359 115.92812012 -38.75 115.9375 C-34.41875 115.9684375 -34.41875 115.9684375 -30 116 C-30 107.75 -30 99.5 -30 91 C-30.99 90.67 -31.98 90.34 -33 90 C-33.125 82.375 -33.125 82.375 -32 79 C-31.34 79 -30.68 79 -30 79 C-30 76.36 -30 73.72 -30 71 C-33.08324097 70.83159521 -36.16660621 70.66558138 -39.25 70.5 C-40.55904297 70.42845703 -40.55904297 70.42845703 -41.89453125 70.35546875 C-42.73886719 70.31035156 -43.58320312 70.26523438 -44.453125 70.21875 C-45.22817383 70.17685547 -46.00322266 70.13496094 -46.80175781 70.09179688 C-48.86626582 70.00558463 -50.9336927 70 -53 70 C-55.02450921 70 -57.02400526 70.59466775 -59 71 Z M-25 71 C-25.02578125 71.61488281 -25.0515625 72.22976562 -25.078125 72.86328125 C-25.54716981 79.54716981 -25.54716981 79.54716981 -28.0625 82.0625 C-28.701875 82.371875 -29.34125 82.68125 -30 83 C-29.67 84.32 -29.34 85.64 -29 87 C-28.01 87 -27.02 87 -26 87 C-26.33 86.01 -26.66 85.02 -27 84 C-24.69 84 -22.38 84 -20 84 C-20 82.68 -20 81.36 -20 80 C-20 77 -20 74 -20 71 C-21.65 71 -23.3 71 -25 71 Z M-18 71 C-18 73.31 -18 75.62 -18 78 C-14.7 78 -11.4 78 -8 78 C-8.34227572 75.02934491 -8.34227572 75.02934491 -9 72 C-11.95664519 70.5216774 -14.74229737 70.93967217 -18 71 Z M14.24389648 77.71972656 C12.7788584 79.88810004 12.7788584 79.88810004 13.23852539 82.16308594 C13.52203857 82.92911133 13.80555176 83.69513672 14.09765625 84.484375 C14.40509766 85.33773437 14.71253906 86.19109375 15.02929688 87.0703125 C15.37025391 87.95460938 15.71121094 88.83890625 16.0625 89.75 C16.37638672 90.61882812 16.69027344 91.48765625 17.01367188 92.3828125 C20.05918772 102.2401589 20.05918772 102.2401589 26.5625 109.1875 C29.53278277 108.95901671 30.06386442 108.13816712 32 106 C30.21494369 99.6270358 28.17716564 93.33263668 26.0625 87.0625 C25.82192871 86.31685791 25.58135742 85.57121582 25.33349609 84.80297852 C23.94955461 80.77283438 22.92210131 77.95721298 19 76 C15.94758107 75.65016595 15.94758107 75.65016595 14.24389648 77.71972656 Z M2.4375 81.375 C-0.22681703 83.64723409 -0.22681703 83.64723409 0 86 C-0.99 86.33 -1.98 86.66 -3 87 C-2.67 91.29 -2.34 95.58 -2 100 C0.31 98.68 2.62 97.36 5 96 C5 95.34 5 94.68 5 94 C5.639375 93.773125 6.27875 93.54625 6.9375 93.3125 C9.15673727 92.15852321 9.15673727 92.15852321 10 89.875 C10 85.63923603 8.08584787 82.60771113 6 79 C4.53992901 78.88670589 4.53992901 78.88670589 2.4375 81.375 Z M-14 81 C-15.2505313 82.02714661 -15.2505313 82.02714661 -15.11352539 84.22485352 C-15.10828857 85.18319092 -15.10305176 86.14152832 -15.09765625 87.12890625 C-15.09443359 88.16337891 -15.09121094 89.19785156 -15.08789062 90.26367188 C-15.07951172 91.35228516 -15.07113281 92.44089844 -15.0625 93.5625 C-15.05798828 94.65498047 -15.05347656 95.74746094 -15.04882812 96.87304688 C-15.03699826 99.58208495 -15.02051543 102.29101599 -15 105 C-13.02 105 -11.04 105 -9 105 C-9 97.41 -9 89.82 -9 82 C-10.65 81.67 -12.3 81.34 -14 81 Z M-76 82 C-76 89.59 -76 97.18 -76 105 C-74.02 105 -72.04 105 -70 105 C-70 97.41 -70 89.82 -70 82 C-71.98 82 -73.96 82 -76 82 Z M-61 85 C-61.33 85.66 -61.66 86.32 -62 87 C-59.03 87.33 -56.06 87.66 -53 88 C-53.33 87.01 -53.66 86.02 -54 85 C-56.31 85 -58.62 85 -61 85 Z M-26 86 C-25.67 86.99 -25.34 87.98 -25 89 C-24.91684248 91.06498892 -24.89264122 93.1325789 -24.90234375 95.19921875 C-24.90556641 96.40771484 -24.90878906 97.61621094 -24.91210938 98.86132812 C-24.92048828 100.12396484 -24.92886719 101.38660156 -24.9375 102.6875 C-24.94201172 103.96173828 -24.94652344 105.23597656 -24.95117188 106.54882812 C-24.96297127 109.69926564 -24.97943403 112.84960949 -25 116 C-23.68 116 -22.36 116 -21 116 C-20.10843843 101.01101339 -20.10843843 101.01101339 -20 86 C-21.98 86 -23.96 86 -26 86 Z M-65 87 C-65 96.57 -65 106.14 -65 116 C-63.68 116 -62.36 116 -61 116 C-60.67 106.76 -60.34 97.52 -60 88 C-61.65 87.67 -63.3 87.34 -65 87 Z M-76 110 C-75.67 111.65 -75.34 113.3 -75 115 C-72.69 115.66 -70.38 116.32 -68 117 C-66.64381501 115.87465895 -66.64381501 115.87465895 -66.9375 112.9375 C-66.958125 111.968125 -66.97875 110.99875 -67 110 C-69.97 110 -72.94 110 -76 110 Z M-18 110 C-18 111.98 -18 113.96 -18 116 C-13.27675086 116.42641875 -13.27675086 116.42641875 -9.0625 114.6875 C-7.73359337 112.90923892 -7.73359337 112.90923892 -8 110 C-11.3 110 -14.6 110 -18 110 Z " fill="#E9EBEB" transform="translate(131,44)"/>
<path d="M0 0 C3.96 0 7.92 0 12 0 C11.67 0.66 11.34 1.32 11 2 C9.68 1.67 8.36 1.34 7 1 C7 4.63 7 8.26 7 12 C8.32 12 9.64 12 11 12 C11 10.35 11 8.7 11 7 C11.99 7.66 12.98 8.32 14 9 C14 10.32 14 11.64 14 13 C15.65 13 17.3 13 19 13 C19 12.34 19 11.68 19 11 C20.32 11.33 21.64 11.66 23 12 C23.6875 13.6875 23.6875 13.6875 24 16 C22.625 18.625 22.625 18.625 21 21 C20.67 21.66 20.34 22.32 20 23 C17.67843403 23.40729228 15.3431213 23.74438677 13 24 C13.16113281 24.85335937 13.32226562 25.70671875 13.48828125 26.5859375 C13.99703593 29.98022447 14.16741791 33.19497859 14.1875 36.625 C14.20167969 37.73101562 14.21585938 38.83703125 14.23046875 39.9765625 C14.00761948 42.9000427 13.52134128 44.53458529 12 47 C11.67 47 11.34 47 11 47 C10.97096108 42.91668161 10.95318811 38.8333898 10.9375 34.75 C10.92912109 33.59113281 10.92074219 32.43226563 10.91210938 31.23828125 C10.90727539 29.56572266 10.90727539 29.56572266 10.90234375 27.859375 C10.89710693 26.83295898 10.89187012 25.80654297 10.88647461 24.74902344 C10.98663049 22.32374344 11.30076922 20.31302639 12 18 C11.34 17.67 10.68 17.34 10 17 C11.7015625 16.7834375 11.7015625 16.7834375 13.4375 16.5625 C16.80777201 16.38828522 16.80777201 16.38828522 18 15 C15.36 15 12.72 15 10 15 C10 14.34 10 13.68 10 13 C8.68 13.33 7.36 13.66 6 14 C5.67 9.71 5.34 5.42 5 1 C3.35 1 1.7 1 0 1 C0 0.67 0 0.34 0 0 Z " fill="#C4C9CC" transform="translate(59,114)"/>
<path d="M0 0 C3.96 0 7.92 0 12 0 C11.67 0.66 11.34 1.32 11 2 C9.68 1.67 8.36 1.34 7 1 C7 4.63 7 8.26 7 12 C8.32 12 9.64 12 11 12 C11 10.35 11 8.7 11 7 C11.99 7.66 12.98 8.32 14 9 C14 10.32 14 11.64 14 13 C15.65 13 17.3 13 19 13 C19 12.34 19 11.68 19 11 C19.99 11.33 20.98 11.66 22 12 C21.34 12 20.68 12 20 12 C20 12.66 20 13.32 20 14 C16.78548731 15.60725635 13.56387464 15.05748185 10 15 C10 14.34 10 13.68 10 13 C8.68 13.33 7.36 13.66 6 14 C5.67 9.71 5.34 5.42 5 1 C3.35 1 1.7 1 0 1 C0 0.67 0 0.34 0 0 Z " fill="#828B90" transform="translate(59,114)"/>
<path d="M0 0 C0.33 0.99 0.66 1.98 1 3 C1.99 3 2.98 3 4 3 C3.67 3.99 3.34 4.98 3 6 C3 5.34 3 4.68 3 4 C-4.26 4 -11.52 4 -19 4 C-19 5.65 -19 7.3 -19 9 C-19.33 9 -19.66 9 -20 9 C-20 7.02 -20 5.04 -20 3 C-19.34 3 -18.68 3 -18 3 C-18 2.34 -18 1.68 -18 1 C-13.05 1 -8.1 1 -3 1 C-3 1.66 -3 2.32 -3 3 C-2.01 2.01 -1.02 1.02 0 0 Z " fill="#C5CACC" transform="translate(98,111)"/>
<path d="M0 0 C3.63 0.66 7.26 1.32 11 2 C11 2.99 11 3.98 11 5 C9.265625 6.1171875 9.265625 6.1171875 7 7 C4.859375 6.3203125 4.859375 6.3203125 2.75 5.125 C1.69039062 4.54105469 1.69039062 4.54105469 0.609375 3.9453125 C0.07828125 3.63335937 -0.4528125 3.32140625 -1 3 C-0.67 2.01 -0.34 1.02 0 0 Z " fill="#D0D3D4" transform="translate(129,74)"/>
<path d="M0 0 C0.33 4.29 0.66 8.58 1 13 C0.01 13 -0.98 13 -2 13 C-3.23225524 10.04258743 -4.34053856 7.14054996 -5 4 C-3.14634146 0 -3.14634146 0 0 0 Z " fill="#C9CBCD" transform="translate(144,79)"/>
<path d="M0 0 C1.32 0.33 2.64 0.66 4 1 C3.67 2.98 3.34 4.96 3 7 C1.68 7.33 0.36 7.66 -1 8 C-0.67 6.68 -0.34 5.36 0 4 C-0.66 4 -1.32 4 -2 4 C-2 3.34 -2 2.68 -2 2 C-1.34 2 -0.68 2 0 2 C0 1.34 0 0.68 0 0 Z " fill="#E9EBEC" transform="translate(79,126)"/>
<path d="M0 0 C-0.33 1.32 -0.66 2.64 -1 4 C-1.66 4 -2.32 4 -3 4 C-3.33 4.66 -3.66 5.32 -4 6 C-4 5.01 -4 4.02 -4 3 C-4.66 2.67 -5.32 2.34 -6 2 C-2.25 0 -2.25 0 0 0 Z " fill="#BEC2C4" transform="translate(148,73)"/>
<path d="M0 0 C0.99 0.33 1.98 0.66 3 1 C2.625 2.9375 2.625 2.9375 2 5 C1.01 5.495 1.01 5.495 0 6 C-0.38218767 4.34385343 -0.71395102 2.67542976 -1 1 C-0.67 0.67 -0.34 0.34 0 0 Z " fill="#C4C7C8" transform="translate(135,86)"/>
<path d="M0 0 C1.65 0.33 3.3 0.66 5 1 C4.67 1.99 4.34 2.98 4 4 C2.35 3.67 0.7 3.34 -1 3 C-0.67 2.01 -0.34 1.02 0 0 Z " fill="#C2C5C6" transform="translate(130,82)"/>
<path d="M0 0 C0.33 0 0.66 0 1 0 C1 2.97 1 5.94 1 9 C0.67 8.01 0.34 7.02 0 6 C-0.66 5.67 -1.32 5.34 -2 5 C-1.34 5 -0.68 5 0 5 C0 3.35 0 1.7 0 0 Z " fill="#D4DEE1" transform="translate(82,115)"/>
<path d="M0 0 C0.33 0 0.66 0 1 0 C1 2.97 1 5.94 1 9 C0.67 9 0.34 9 0 9 C0 6.03 0 3.06 0 0 Z " fill="#FDFDFD" transform="translate(78,142)"/>
<path d="M0 0 C0.33 0 0.66 0 1 0 C1 1.98 1 3.96 1 6 C0.67 6 0.34 6 0 6 C0 4.02 0 2.04 0 0 Z " fill="#EBF0F2" transform="translate(82,137)"/>
<path d="" fill="#EFF2F4" transform="translate(0,0)"/>
<path d="" fill="#FFFFFF" transform="translate(0,0)"/>
<path d="" fill="#FFFFFF" transform="translate(0,0)"/>
<path d="" fill="#EEEFF1" transform="translate(0,0)"/>
<path d="" fill="#FFFFFF" transform="translate(0,0)"/>
<path d="" fill="#EEEFF1" transform="translate(0,0)"/>
<path d="" fill="#EDEBEC" transform="translate(0,0)"/>
</svg>
